 ##       ##    ## ########   ######   
 ##       ##   ##  ##     ## ##    ##  
 ##       ##  ##   ##     ## ##        
 ##       #####    ########  ##   #### 
 ##       ##  ##   ##   ##   ##    ##  
 ##       ##   ##  ##    ##  ##    ##  
 ######## ##    ## ##     ##  ######   

 NFO:

 Encoded By .......: BigPerm1828
 Runtime ..........: 1h 32mn
 File Size ........: 1.04 GB
 Resolution .......: 704x396
 Language .........: English
   http://www.imdb.com/title/tt0491005
 
 Video
 ID : 0
 Format : MPEG-4 Visual
 Format profile : Advanced Simple@L5
 Format settings, BVOP : Yes
 Format settings, QPel : No
 Format settings, GMC : No warppoints
 Format settings, Matrix : Default (H.263)
 Codec ID : XVID
 Codec ID/Hint : XviD
 Duration : 1h 32mn
 Bit rate : 1 151 Kbps
 Width : 704 pixels
 Height : 396 pixels
 Display aspect ratio : 16:9
 Frame rate : 23.976 fps
 Color space : YUV
 Chroma subsampling : 4:2:0
 Bit depth : 8 bits
 Scan type : Progressive
 Compression mode : Lossy
 Bits/(Pixel*Frame) : 0.172
 Stream size : 761 MiB (72%)
 Writing library : XviD 1.2.1 (UTC 2008-12-04)

 Audio
 ID : 1
 Format : AC-3
 Format/Info : Audio Coding 3
 Mode extension : CM (complete main)
 Codec ID : 2000
 Duration : 1h 32mn
 Bit rate mode : Constant
 Bit rate : 448 Kbps
 Channel(s) : 6 channels
 Channel positions : Front: L C R, Side: L R, LFE
 Sampling rate : 48.0 KHz
 Bit depth : 16 bits
 Compression mode : Lossy
 Video delay : 42ms
 Stream size : 296 MiB (28%)
 Alignment : Split accross interleaves
 Interleave, duration : 500 ms (11.99 video frames)
 Interleave, preload duration : 500 ms
 


 



 ----------------------------------                              http://thepiratebay.org/user/hiest
 ----------------------------------







 Screen Shots:
  http://leetleech.org/images/18803449083036616529.png
  http://leetleech.org/images/35548515707205016998.png
  http://leetleech.org/images/45778431404188659279.png
  http://leetleech.org/images/44172332510811109444.png

 ##       ##    ## ########   ######   
 ##       ##   ##  ##     ## ##    ##  
 ##       ##  ##   ##     ## ##        
 ##       #####    ########  ##   #### 
 ##       ##  ##   ##   ##   ##    ##  
 ##       ##   ##  ##    ##  ##    ##  
 ######## ##    ## ##     ##  ######   